<?xml version="1.0" encoding="utf-8"?>
<!-- Generator: Adobe Illustrator 17.0.0, SVG Export Plug-In . SVG Version: 6.00 Build 0)  -->
<!DOCTYPE svg PUBLIC "-//W3C//DTD SVG 1.1//EN" "http://www.w3.org/Graphics/SVG/1.1/DTD/svg11.dtd">
<svg version="1.1" id="Layer_1" xmlns="http://www.w3.org/2000/svg" xmlns:xlink="http://www.w3.org/1999/xlink" x="0px" y="0px"
	 width="120px" height="45px" viewBox="0 0 120 45" enable-background="new 0 0 120 45" xml:space="preserve">
<g>
	<path id="IOM_logo_EN" fill="#1F369C" d="M18.5,15.2c0.2,0,0.4-0.2,0.4-0.4s-0.2-0.4-0.4-0.4c-0.2,0-0.4,0.2-0.4,0.4
		C18,15,18.2,15.2,18.5,15.2z M21.3,12.3c0.3,0,0.6-0.3,0.6-0.6s-0.3-0.6-0.6-0.6c-0.3,0-0.6,0.3-0.6,0.6
		C20.7,12,20.9,12.3,21.3,12.3z M49.4,0.6h-4.2v28.9h4.2V0.6z M7.8,40.5c0,0.9-0.1,1.5-0.3,1.8c-0.3,0.5-1,1.3-2.5,1.3
		c-1.1,0-1.8-0.4-2.2-0.8c-0.5-0.5-0.6-1-0.6-2.3V35H0.8v5.5c0,0.7,0,1.8,0.5,2.6c0.8,1.2,2.3,1.7,3.7,1.7c1.1,0,2.2-0.3,3.1-1
		c1.1-1,1.1-2.3,1.1-3.3V35H7.8V40.5z M80.8,36.2h3.4v8.4h1.4v-8.4H89V35h-8.2V36.2z M74.7,34.9l-4.2,9.7h1.4l1.2-2.8h4.2l1.3,2.8
		H80l-4.4-9.7H74.7z M73.7,40.5l1.5-3.5l1.6,3.5H73.7z M92.1,44.6h1.4V35h-1.4V44.6z M101.7,34.9c-3.4,0-5.3,2.4-5.3,5
		c0,2.7,2.1,4.9,5.2,4.9c3.2,0,5.4-2.2,5.4-5C107,37.2,105,34.9,101.7,34.9z M104.6,42.3c-0.7,0.7-1.8,1.1-2.9,1.1
		c-2.1,0-3.8-1.4-3.8-3.6c0-1.6,1.1-3.7,3.9-3.7c2.6,0,3.8,2,3.8,3.6C105.6,40.6,105.2,41.7,104.6,42.3z M117.5,35v7.5l-6.6-7.5
		h-1.1v9.6h1.3v-7.4l6.6,7.4h1.2V35H117.5z M86.2,15c0-7.8-6-14.8-15.6-14.8c-9.9,0-15.5,7.3-15.5,14.9c0,8.1,6.2,14.8,15.3,14.8
		C79.8,29.9,86.2,23.3,86.2,15z M70.6,26c-6.1,0-11.2-4.3-11.2-10.9c0-4.8,3.3-11,11.4-11C78.4,4.1,82,10.2,82,15
		c0,2.5-1.1,5.6-2.9,7.6C77.1,24.7,73.7,26,70.6,26z M105.7,18.2L114.6,7v22.5h4.2V0.6h-3.9l-9.6,11.9L95.6,0.6h-3.9v28.9h4.2V7
		l9,11.2H105.7z M65.4,40c1.1-0.4,1.6-1.3,1.6-2.4c0-1-0.5-1.9-1.5-2.4C64.9,35,64.3,35,63.8,35h-2.5v9.6h1.4v-4.2h0.4
		c0.7,0,1.2,0,2.1,1.2c0.3,0.4,1.7,2.5,2,3H69c-0.7-0.9-0.9-1.3-1.3-1.9C66.9,41.5,66.3,40.6,65.4,40z M64.7,39.1
		c-0.4,0.1-1.2,0.1-1.4,0.1h-0.5v-3h0.4c0.9,0,1.3,0.1,1.7,0.2c0.5,0.2,0.7,0.7,0.7,1.3C65.6,38.2,65.4,38.8,64.7,39.1z M36.2,14.2
		c0-4.6-2.1-9.7-5.5-13.6h-3.1c0.8,0.7,1.9,2,1.9,2c2.9,3.3,4.7,7.7,4.7,11.7v0.1h-4.9C28.5,6.7,22.4,0.6,14.9,0.6
		c-8,0-14.4,6.9-14.4,15.3c0,4.6,2.1,9.7,5.5,13.6h3.1c-0.8-0.7-1.9-2-1.9-2c-2.9-3.3-4.7-7.7-4.7-11.7v-0.1h4.9
		c0.7,7.7,6.9,13.8,14.4,13.8C29.7,29.5,36.2,22.6,36.2,14.2z M22.1,27.5v-3.6c2.1,0.1,3.9,0.9,5.3,2.2
		C25.7,26.9,23.9,27.4,22.1,27.5z M22.1,23.1v-2.3h6.8c-1,1.3-2.3,2.3-3.6,2.9C24.2,23.4,23.2,23.2,22.1,23.1z M28,25.7
		c-0.6-0.6-1.2-1-1.9-1.4c1.4-0.8,2.7-2,3.7-3.4h2.7C31.4,22.8,29.9,24.5,28,25.7z M34.1,15.3C34,17,33.6,18.5,33,20h-2.6
		c0.7-1.3,1.1-2.7,1.1-4.2c0-0.1,0-0.3,0-0.4h2.6V15.3z M27.2,14.4h-2.5c0,0,0,0,0-0.1c0-1.5-0.4-2.9-1.1-4.2h2.5
		C26.7,11.5,27.1,12.9,27.2,14.4z M25.7,9.3h-2.6c-1-1.4-2.3-2.6-3.7-3.4c0.7-0.4,1.3-0.8,1.8-1.4C23.1,5.7,24.6,7.3,25.7,9.3z
		 M15.5,2.6C17.3,2.7,19,3.2,20.6,4c-1.3,1.2-3.1,2-5.1,2.2V2.6z M15.5,7c1.1-0.1,2.1-0.3,3-0.7c1.4,0.6,2.7,1.6,3.6,2.9h-6.6V7z
		 M14.6,2.6v3.6c-2.1,0-3.9-0.9-5.3-2.2C10.9,3.2,12.7,2.7,14.6,2.6z M14.6,7v2.3H7.8c1-1.3,2.3-2.3,3.6-2.9C12.4,6.7,13.5,7,14.6,7
		z M8.6,4.4c0.6,0.6,1.2,1,1.9,1.4c-1.4,0.8-2.7,2-3.7,3.4H4.1C5.2,7.3,6.8,5.6,8.6,4.4z M2.5,14.8c0.1-1.6,0.5-3.2,1.2-4.6h2.6
		c-0.7,1.3-1.1,2.7-1.1,4.2c0,0.1,0,0.3,0,0.4H2.5z M6,14.8c0-0.1,0-0.3,0-0.4c0-1.5,0.5-3,1.2-4.2h15.5c0.8,1.3,1.2,2.7,1.2,4.2
		c0,0,0,0,0,0.1l0,0v0.9h6.7c0,0.1,0,0.3,0,0.4c0,1.5-0.5,3-1.2,4.2H13.9c-0.7-1.3-1.2-2.7-1.2-4.2v-0.1v-0.9H6z M9.4,15.7h2.5
		c0,0,0,0,0,0.1c0,1.5,0.4,2.9,1.1,4.2h-2.5C9.9,18.6,9.5,17.2,9.4,15.7z M11,20.9h2.6c1,1.4,2.3,2.6,3.7,3.4
		c-0.7,0.4-1.3,0.8-1.8,1.4C13.5,24.5,12,22.8,11,20.9z M21.1,27.5c-1.8-0.1-3.5-0.6-5.1-1.4c1.3-1.2,3.1-2,5.1-2.2V27.5z
		 M21.1,23.1c-1.1,0.1-2.1,0.3-3,0.7c-1.4-0.6-2.7-1.6-3.6-2.9h6.6V23.1z M13.5,15.9c0.1,0,0.2-0.1,0.2-0.2l1-2.5l0.1,2.4l-0.4,3.1
		c0,0.1,0,0.2,0.2,0.3h0.1c0.1,0,0.2-0.1,0.3-0.2l0.4-2.9h0.5l0.4,2.9c0,0.1,0.1,0.2,0.3,0.2h0.1c0.1,0,0.2-0.2,0.2-0.3l-0.4-3.1
		l0.1-2.4l1,2.5l0,0l0,0l0,0l0,0l0,0l0,0l0,0l0,0l0,0l0,0l0,0l0,0l0,0H18l-0.3,1.7c0,0.1,0,0.2,0.1,0.3c0,0.1,0.1,0.1,0.2,0.1v0.7
		c0,0.1,0.1,0.2,0.2,0.2s0.2-0.1,0.2-0.2v-0.7l0,0l0,0h0.1h0.1l0,0l0,0l0,0v0.7c0,0.1,0.1,0.2,0.2,0.2s0.2-0.1,0.2-0.2v-0.7
		c0.1,0,0.1-0.1,0.2-0.1c0.1-0.1,0.1-0.2,0.1-0.3L19,15.9h0.2l0,0l0,0l0,0l0,0l0,0l0,0l0,0l0,0l0,0l0,0l0,0l0,0l0,0l1.1-2.6l0.2,1
		c0,0.2,0,0.3,0,0.5l-1,4.3h3.1l-1-4.3c0-0.2,0-0.3,0-0.5l0.2-1.1l0.8,2.1c0,0.1,0.1,0.2,0.2,0.2h0.1c0.1-0.1,0.2-0.2,0.1-0.3
		l-0.9-2.3c0-0.1-0.1-0.2-0.2-0.2h-1.8c-0.1,0-0.2,0.1-0.2,0.2L19,15.4h-1.1l-1.1-2.7c0-0.1-0.1-0.2-0.2-0.2h-1.8
		c-0.1,0-0.2,0.1-0.2,0.2l-1.2,2.8c0,0.1,0,0.3,0.1,0.3C13.5,15.9,13.5,15.9,13.5,15.9z M20.7,42.5L14.1,35H13v9.6h1.3v-7.4l6.6,7.4
		h1.2V35h-1.3v7.5H20.7z M44.1,44.6h1.4V35h-1.4V44.6z M54.3,41.1h1.9v2c-0.9,0.3-1.4,0.4-2.1,0.4c-2.4,0-4-1.6-4-3.7
		c0-2.3,1.9-3.7,3.8-3.7c0.5,0,1.9,0.1,3.5,1v-1.4c-1.1-0.4-2.1-0.8-3.5-0.8c-3.4,0-5.3,2.5-5.3,5c0,2.2,1.6,4.9,5.4,4.9
		c1.6,0,2.9-0.5,3.6-0.8v-4.1h-3.3C54.3,39.9,54.3,41.1,54.3,41.1z M35.6,38.9l-3.3-4H31v9.6h1.4V37l3.1,3.7h0.3l3-3.7v7.5h1.4V35
		h-1.3L35.6,38.9z M15.6,12.3c0.3,0,0.6-0.3,0.6-0.6s-0.3-0.6-0.6-0.6S15,11.4,15,11.7C15.1,12,15.3,12.3,15.6,12.3z"/>
</g>
</svg>
