<svg width="162" height="24" viewBox="0 0 162 24" fill="none" xmlns="http://www.w3.org/2000/svg">
<path d="M27.571 10.5669L27.2402 10.5506C26.9645 8.59519 26.4814 8.69248 25.9625 7.30128L25.6415 7.37587C25.155 10.729 26.8673 10.6674 26.65 13.7708L26.9613 13.8714C27.5483 13.3428 30.5544 10.0804 28.7449 6.14033C28.6184 6.17276 28.5471 6.19546 28.4271 6.22789C28.6476 9.01676 28.0315 8.56276 27.571 10.5701M25.7712 11.8413C23.8611 15.1555 25.8328 15.0907 23.7444 18.5962C23.8546 18.7032 23.9779 18.8265 23.9779 18.8265C24.1919 18.7422 29.4583 17.1726 29.4583 11.7051L29.1308 11.663C28.6508 13.4336 26.9354 14.3318 26.0825 15.9306L25.7939 15.7782C26.4489 13.6703 25.8685 13.2812 26.0955 11.8997C25.9917 11.8835 25.7712 11.8413 25.7712 11.8413ZM25.9949 4.40214C26.1506 4.32756 26.2868 4.25946 26.2868 4.25946C25.9301 3.00122 25.4955 1.8727 23.112 0.588517C23.0342 0.676075 22.8947 0.82849 22.8947 0.82849C24.2957 2.07051 23.9 2.90069 25.9949 4.40214ZM26.5819 5.81604C25.969 4.95668 25.061 4.69076 24.1919 3.28335L23.9195 3.46819C24.6426 6.75648 26.3225 5.91008 27.2142 8.80273C27.3926 8.78328 27.5385 8.77355 27.5385 8.77355C27.9342 8.05363 28.9038 3.55251 26.076 1.95053L25.8068 2.14186C27.0521 3.71465 26.7019 4.64212 26.8932 5.71227L26.5819 5.81604ZM22.4699 20.1658L22.2689 19.9064C23.6698 18.3854 23.5725 17.6428 24.3021 16.3554C24.3021 16.3554 24.127 16.2387 24.0297 16.1673C21.3414 17.805 21.7954 20.2955 18.452 20.1269C18.5006 20.2566 18.5655 20.4349 18.5655 20.4349C20.8582 21.7483 24.7399 22.8217 27.8661 17.4807C27.7364 17.4061 27.5774 17.3153 27.5774 17.3153C25.6058 19.4199 24.4092 18.9043 22.4667 20.1658M14.7259 20.6717C11.282 19.5172 9.26815 23.386 5.18212 21.6802L4.97458 21.9364C9.12546 25.776 11.2528 20.4576 14.0741 20.9473C13.2893 21.3397 12.43 21.9915 11.4571 23.0163C11.7652 23.3471 11.9143 23.4962 12.2646 23.8627C13.1726 22.3515 13.9801 21.5343 14.7259 21.1646C15.475 21.5343 16.2793 22.3515 17.1905 23.8627C17.544 23.4962 17.6899 23.3471 18.0012 23.0163C17.0284 21.9915 16.1658 21.3397 15.3842 20.9473C18.2055 20.4576 20.3329 25.776 24.4837 21.9364L24.2762 21.6802C20.1869 23.386 18.1763 19.5205 14.7292 20.6717M10.8928 20.4317C10.8928 20.4317 10.9544 20.2533 11.0063 20.1236C7.65968 20.2923 8.11368 17.8017 5.42534 16.1641C5.32805 16.2354 5.15294 16.3522 5.15294 16.3522C5.88258 17.6428 5.7853 18.3854 7.18622 19.9031L6.98516 20.1625C5.04268 18.8978 3.84606 19.4167 1.87114 17.3121C1.87114 17.3121 1.71873 17.4029 1.58577 17.4774C4.71515 22.8185 8.59363 21.7451 10.8896 20.4317M2.49702 13.8681L2.81158 13.7676C2.59106 10.6641 4.3033 10.7258 3.81687 7.37262L3.49582 7.29804C2.97696 8.69248 2.49377 8.59195 2.21489 10.5474L1.88736 10.5636C1.42687 8.55952 0.813963 9.01028 1.03124 6.2214C0.908006 6.18897 0.839906 6.16627 0.713434 6.13384C-1.09609 10.0772 1.91006 13.3363 2.50026 13.8649M3.4634 4.39566C5.56154 2.89421 5.16266 2.06403 6.56683 0.822004C6.56683 0.822004 6.42414 0.666346 6.34956 0.582031C3.9628 1.86621 3.5315 2.99473 3.17478 4.25297C3.17478 4.25297 3.31098 4.32107 3.46664 4.39566M5.48371 18.82C5.48371 18.82 5.60694 18.6968 5.71395 18.5897C3.62554 15.0842 5.59721 15.1458 3.6904 11.8348C3.6904 11.8348 3.46988 11.877 3.36611 11.8932C3.59311 13.2747 3.01264 13.6638 3.6677 15.7717L3.37908 15.9241C2.5262 14.3221 0.81072 13.4271 0.334017 11.6565L0 11.7019C0 17.1726 5.26644 18.7389 5.48047 18.8232M2.24407 8.80273C3.13586 5.91008 4.81568 6.75648 5.54208 3.46819L5.26968 3.28335C4.40059 4.69076 3.48934 4.95668 2.87643 5.81604L2.56512 5.71227C2.75645 4.64212 2.40622 3.71465 3.65148 2.14186L3.38232 1.95053C0.554532 3.55251 1.52415 8.05038 1.91978 8.77355C1.91978 8.77355 2.06571 8.78328 2.24407 8.80273Z" fill="white"/>
<path d="M14.7319 0C9.26766 0 4.83789 4.42653 4.83789 9.89079C4.83789 15.355 9.26766 19.7848 14.7319 19.7848C20.1962 19.7848 24.6259 15.355 24.6259 9.89079C24.6259 4.42653 20.1929 0 14.7319 0ZM23.9547 9.56001H21.9765C21.8987 7.80561 21.1982 6.21336 20.0859 5.00052L21.4836 3.60284C22.9494 5.17564 23.8704 7.26081 23.9514 9.56001M19.6189 4.53355C18.4061 3.42448 16.8138 2.72402 15.0594 2.64295V0.668033C17.3587 0.749105 19.4471 1.67008 21.0199 3.13587L19.6222 4.53679L19.6189 4.53355ZM16.0485 9.89079C16.0485 10.6204 15.4583 11.2106 14.7287 11.2106C13.999 11.2106 13.4088 10.6172 13.4088 9.89079C13.4088 9.16438 13.999 8.57093 14.7287 8.57093C15.4583 8.57093 16.0485 9.16114 16.0485 9.89079ZM14.4011 7.94181C14.0996 7.9937 13.8239 8.11044 13.5872 8.28232L12.1798 6.87166C12.7894 6.35605 13.558 6.02203 14.4044 5.95069V7.94181H14.4011ZM13.5839 11.5025C13.8239 11.6744 14.0996 11.7911 14.4011 11.8398V13.8309C13.5548 13.7628 12.7894 13.4288 12.1765 12.9099L13.5839 11.4993V11.5025ZM15.0594 11.8398C15.361 11.7911 15.6367 11.6744 15.8734 11.5025L17.2841 12.9131C16.6744 13.432 15.9026 13.7628 15.0594 13.8341V11.843V11.8398ZM15.8734 8.27907C15.6334 8.11044 15.361 7.99046 15.0594 7.93857V5.94744C15.9026 6.01879 16.6712 6.34956 17.2841 6.86518L15.8734 8.27583V8.27907ZM14.3979 5.28914C13.3699 5.36372 12.4392 5.76908 11.7063 6.40145L10.3021 4.99728C11.395 4.0082 12.8251 3.37908 14.3947 3.30125V5.28914H14.3979ZM13.117 8.74605C12.9483 8.98602 12.8316 9.26167 12.7797 9.56001H10.7853C10.8567 8.71686 11.1874 7.9483 11.7063 7.3354L13.1137 8.74605H13.117ZM12.7797 10.2216C12.8316 10.5199 12.9483 10.7988 13.117 11.0355L11.7096 12.4429C11.1939 11.83 10.8599 11.0615 10.7886 10.2183H12.7797V10.2216ZM11.7096 13.3769C12.4424 14.0092 13.3732 14.4178 14.4011 14.4892V16.4738C12.8283 16.396 11.4015 15.7701 10.3086 14.7778L11.7128 13.3736L11.7096 13.3769ZM15.0594 14.4892C16.0842 14.4178 17.0181 14.0092 17.7478 13.3769L19.152 14.781C18.0591 15.7734 16.6322 16.3992 15.0562 16.4771V14.4924L15.0594 14.4892ZM16.3404 11.0355C16.509 10.7988 16.6258 10.5199 16.6776 10.2216H18.6688C18.5974 11.0647 18.2634 11.8333 17.7478 12.4462L16.3404 11.0388V11.0355ZM16.6776 9.56001C16.6258 9.25842 16.509 8.98278 16.3404 8.74605L17.7478 7.3354C18.2667 7.9483 18.5974 8.71686 18.6688 9.56001H16.6776ZM17.7478 6.40469C17.0181 5.77233 16.0842 5.36372 15.0594 5.29238V3.3045C16.6322 3.38232 18.0591 4.01144 19.1552 5.00052L17.751 6.40469H17.7478ZM14.3979 2.64619C12.6435 2.72726 11.0512 3.42772 9.83517 4.53679L8.43749 3.13587C10.0103 1.67008 12.0987 0.749105 14.3979 0.668033V2.64619ZM11.2393 6.87166C10.607 7.60455 10.2016 8.53526 10.127 9.56001H8.14239C8.21697 7.98721 8.84933 6.56035 9.83841 5.4675L11.2393 6.87166ZM10.127 10.2216C10.1984 11.2463 10.6037 12.177 11.2393 12.9099L9.83517 14.3141C8.84609 13.2212 8.21697 11.7911 8.14239 10.2216H10.127ZM9.83517 15.248C11.048 16.3571 12.6403 17.0608 14.3979 17.1386V19.1168C12.0987 19.0357 10.0103 18.1147 8.43749 16.6489L9.83517 15.248ZM15.0562 17.1386C16.8106 17.0608 18.4029 16.3603 19.6189 15.248L21.0166 16.6489C19.4438 18.1147 17.3554 19.0357 15.0562 19.1168V17.1386ZM18.2115 12.9131C18.8471 12.1803 19.2525 11.2496 19.3238 10.2248H21.3117C21.2339 11.7944 20.6048 13.2245 19.6157 14.3173L18.2115 12.9131ZM19.3238 9.56325C19.2525 8.5385 18.8439 7.6078 18.2115 6.87166L19.6157 5.4675C20.6048 6.56359 21.2339 7.98721 21.3117 9.56001H19.3238V9.56325ZM7.97376 3.60284L9.37468 5.00052C8.26561 6.21336 7.56515 7.80561 7.48408 9.56001H5.50592C5.587 7.26081 6.50797 5.17564 7.97376 3.60284ZM5.50592 10.2216H7.48408C7.56191 11.976 8.26561 13.5682 9.37468 14.781L7.97376 16.1787C6.50797 14.6059 5.587 12.5208 5.50592 10.2216ZM21.4868 16.1787L20.0892 14.781C21.1982 13.5682 21.8987 11.976 21.9765 10.2216H23.9547C23.8736 12.5208 22.9526 14.6059 21.4868 16.1787Z" fill="white"/>
<path d="M15.9573 1.95577L16.5119 1.77417L16.8232 1.87794L17.115 1.63797L17.1313 1.55689L16.5897 1.28774L16.4438 1.28125L15.7822 1.61202L15.6006 1.54717L15.5228 1.66391L15.8763 1.94928H15.9606L15.9573 1.95577ZM20.0758 2.93512L19.8358 2.5557L19.4564 2.52976V2.75027L20.0434 2.99673L20.0758 2.93188V2.93512ZM21.5935 5.41916L21.24 5.19865L21.2854 4.82572L19.7418 3.22698L18.6976 2.97079L18.5906 3.41182L19.0673 3.75557L18.9538 4.59547L19.3883 4.6733L19.6607 4.98786L19.7385 5.55861L20.1796 5.74345L20.6076 6.41473L21.2043 6.1553L21.6486 6.92386L22.1739 6.70659L22.2291 6.43094L21.5902 5.41268L21.5935 5.41916ZM20.5136 10.8996L20.5201 11.1072L20.8249 11.3731L20.9643 11.2239L20.9773 11.0747L20.7179 10.8931L20.5103 10.8996H20.5136ZM20.88 8.98633L21.0097 8.87932V8.48693L20.786 8.60367L20.7373 8.8631L20.5136 9.33332L20.5525 9.80354L21.0681 10.1181L21.0097 9.19063L20.88 8.98309V8.98633ZM14.9131 10.3062L14.845 10.2511L14.297 10.2705L14.164 10.6207L13.71 11.1039L14.0473 11.3471L14.7348 10.8899L14.9099 10.3062H14.9131ZM20.2347 14.0939L20.1374 14.1295L20.199 14.3371L20.0661 14.5381L20.0142 15.1024L20.1698 15.2937L20.5947 15.2808L20.7438 14.9986L20.6109 14.3825L20.2347 14.0971V14.0939ZM18.7657 12.0379L18.9732 11.5158L19.09 11.8628L19.2651 11.8076L19.3267 11.5417L19.5245 11.6714L20.4228 11.412L20.1893 10.864L19.891 10.6564L19.5894 10.1732L19.9947 9.32359L20.2704 9.23279L20.4941 8.88256L20.7276 7.73782L20.6206 7.30652L20.3352 7.22869L20.439 6.9044L20.2055 6.8363L20.3093 6.62227L20.2444 6.50553L19.9818 6.64173L19.6413 6.08071L19.4467 6.05477L19.4856 5.8602L18.0166 4.47224L17.9517 4.56304L18.0814 5.04299L19.5732 6.91089L19.5634 7.49136L20.1634 7.86754L20.332 8.68799L20.1342 9.0674L19.9007 9.11605L20.0823 8.51611L19.638 8.10103L19.3526 8.32154L19.2489 8.20156L19.3397 7.96807L18.9894 7.54974L18.0782 7.42002L17.7215 7.96807L17.2642 7.30328L16.9464 7.36489L17.1669 7.47191L17.0242 7.79944L16.7648 7.83511L16.2557 8.35721H15.8795L15.5812 8.19831L15.672 8.00374L16.1908 7.70539L16.2946 7.30003L16.1779 7.1541L15.672 7.58541L14.4689 7.23842L14.1089 7.44272L14.0051 7.93888L12.3188 7.50109L10.8757 8.24696L10.7849 8.4318L10.4736 8.37991L10.2564 9.15496L10.198 9.72247L9.64345 10.491L9.68885 11.2628L8.95921 10.6759L8.73869 10.7148L8.20037 11.172L8.11606 11.6163L8.20686 11.9925L8.00904 12.1871L7.16265 11.7979L6.95511 11.866L6.89025 12.0476L6.76053 12.0865L6.64055 11.9568H6.433L6.27734 12.5438L6.49137 13.1956L7.07185 13.5815L7.21129 13.3285L7.54207 13.8312L8.28469 14.2106L8.51817 14.7165L9.35159 15.3035L9.81857 15.1867L10.3407 15.4072L10.9665 15.1446L11.4497 15.2094L11.5795 15.0278L10.5612 13.815L10.7947 13.5134L10.4347 12.9394L10.5061 12.2389L10.0131 11.1072L9.93856 10.5656L10.3731 10.3419L10.8368 9.04146L11.0865 9.05443L11.1481 10.5786L10.6131 10.5397L10.5093 11.1655L10.7168 11.2953L10.8725 10.7991L12.2669 11.052L12.228 11.1947L12.7761 11.7428L13.7068 10.8348L13.9857 10.2608L13.9532 10.0792L13.7392 10.1311L13.7133 10.3127L12.3967 10.6726L12.8636 9.69652L13.2722 9.72895L13.6387 9.96892L13.8041 9.93325L13.7652 9.33981L14.1219 9.20036L14.1348 8.83716L14.6829 8.73987L14.5272 8.28263L14.7672 8.16913L15.1596 8.37343L14.8061 8.52909L15.0201 8.85013L15.1596 8.72366L15.5358 9.17442H15.8017L15.7498 9.38196L15.9541 9.50195L15.7206 9.80354L16.006 10.144L15.993 10.4943H16.1746L15.8601 11.052L15.4547 11.0423L14.7769 12.213L14.9099 12.3395L14.7931 12.4335L14.7802 12.6021L14.9488 12.8356L14.5564 12.8875L14.6083 13.4745L15.4677 12.9135L16.019 13.1761L16.2914 13.1113V12.9653L16.434 12.8227L16.6027 13.0172L16.9691 12.7319L17.1604 13.0172L16.9043 13.3577L16.2914 13.6074L16.2784 13.828L15.7303 13.7209L15.5196 13.5134H15.1823L14.9974 13.6431L14.5143 13.5393L13.7068 14.0874L13.4214 14.616L13.6549 15.1867L15.4125 16.1045L15.9606 16.0234L15.8309 16.5066L16.1065 16.9508L17.3939 18.0599L17.6793 18.0469L18.4381 17.5021L19.2554 15.9261L19.0219 15.7283L19.4532 15.1446L18.5387 14.937L18.516 14.6257L19.051 14.3079L19.1289 13.7112L19.0381 13.2053L18.8694 13.228L18.7657 13.6593L18.6749 13.7761L17.916 13.9447L17.0048 13.4291L17.1475 13.1794L18.5419 13.5426L18.944 12.44L18.6781 12.226L18.4771 12.2552L17.8674 12.5016L17.9452 12.3589L18.7689 12.0346L18.7657 12.0379ZM16.8232 12.3622L16.5897 12.5405L16.2978 12.4886L16.3173 12.2033L16.4924 12.0995L16.8621 12.2422L16.8232 12.3589V12.3622ZM17.3939 12.0865L17.1086 11.892L16.9756 11.5806L17.2577 11.4088L17.462 11.6552L17.5528 11.9147L17.3875 12.0865H17.3939Z" fill="white"/>
<path d="M57.4814 0.542969V17.4676C57.4814 20.8985 54.9844 23.8625 46.4718 23.8625C37.9592 23.8625 35.459 20.8985 35.459 17.4676V0.542969H41.721V16.9909C41.721 18.8231 43.0765 19.877 46.4718 19.877C49.8671 19.877 51.2226 18.8231 51.2226 16.9909V0.542969H57.4814Z" fill="white"/>
<path d="M68.8589 7.75513V23.1685H62.918V0.542969H70.7171L80.2771 16.6731V0.542969H86.2213V23.1685H78.3768L68.8589 7.75513Z" fill="white"/>
<path d="M119.365 0.542969H130.284C136.757 0.542969 139.024 2.65084 139.024 6.11099V9.47386C139.024 12.9729 136.757 15.0808 130.284 15.0808H123.26V23.1653H119.365V0.542969ZM130.145 3.15997H123.26V12.467H130.145C133.861 12.467 135.294 11.6823 135.294 9.07823V6.5423C135.294 4.06149 133.864 3.15673 130.145 3.15673" fill="white"/>
<path d="M103.145 0.00195312C95.3586 0.00195312 92.2324 2.20387 92.2324 5.97534V17.734C92.2324 21.5055 95.3586 23.7042 103.148 23.7042C110.937 23.7042 114.063 21.5055 114.063 17.734V5.97534C114.06 2.20387 110.937 0.00195312 103.145 0.00195312ZM110.175 17.6367C110.175 20.4224 107.905 21.0937 103.151 21.0937C98.3971 21.0937 96.1271 20.4224 96.1271 17.6367V6.06938C96.1271 3.28375 98.3971 2.61247 103.151 2.61247C107.905 2.61247 110.175 3.28375 110.175 6.06938V17.6367Z" fill="white"/>
<path d="M151.974 23.604C149.072 23.604 146.124 23.1954 143.54 22.4139L144.175 20.0368C146.938 20.6822 149.302 20.9902 152.062 20.9902C156.91 20.9902 157.906 20.0693 157.906 17.4912C157.906 14.4331 157.86 14.0602 151.653 13.0063C144.367 11.7837 143.504 10.6292 143.504 5.94328C143.504 2.00318 145.68 0.0996094 153.148 0.0996094C155.775 0.0996094 158.366 0.372011 160.769 0.848715L160.451 3.3587C158.051 2.95334 155.736 2.71337 153.242 2.71337C148.303 2.71337 147.399 3.43005 147.399 6.04381C147.399 9.16994 147.399 9.40343 153.378 10.5255C161.392 12.0237 161.8 13.0063 161.8 17.4198C161.8 21.3599 160.263 23.604 151.974 23.604Z" fill="white"/>
</svg>
