<svg width="313" height="46" viewBox="0 0 313 46" fill="none" xmlns="http://www.w3.org/2000/svg">
<g clip-path="url(#clip0_18647_8735)">
<g clip-path="url(#clip1_18647_8735)">
<g clip-path="url(#clip2_18647_8735)">
<path d="M116.87 7.42L105.41 37.03H95.76L90.94 20.49L86.07 37.03H76.42L67.95 14.94H62.67V24.85C62.67 29.52 64.56 30.29 67.13 30.29C67.68 30.29 68.44 30.2 69.16 30.03L71.8 36.91C70.27 37.34 67.66 37.66 65.51 37.66C56.67 37.66 52.91 34.05 52.91 25.57V14.94H48.89L40.34 37.03H30.69L25.87 20.49L21 37.03H11.35L0 7.42H10.94L16.64 25.31L22.08 7.42H29.65L35.15 25.31L40.8 7.42H52.91V2.09L62.67 0V7.42H76.01L81.71 25.31L87.15 7.42H94.72L100.22 25.31L105.87 7.42H116.86H116.87Z" fill="#7F35B2"/>
<path d="M144.35 1.57031H142.78V45.5003H144.35V1.57031Z" fill="#99909F"/>
<path d="M169.45 22.6399V22.3099C169.45 13.6599 175.24 7.41992 183.16 7.41992C189.24 7.41992 194.38 10.6399 194.99 16.9699H191.48C190.75 12.5199 188.18 10.2399 183.2 10.2399C177.16 10.2399 173.12 14.9299 173.12 22.2699V22.5999C173.12 30.0199 176.87 34.5099 183.16 34.5099C187.93 34.5099 191.24 32.0999 191.97 27.3699H195.27C194.25 34.0999 189.6 37.4099 183.07 37.4099C174.63 37.4099 169.44 31.6199 169.44 22.6399H169.45Z" fill="#2F2C31"/>
<path d="M198.98 31.1198C198.98 26.1798 204.2 24.5098 209.67 24.5098H212.73V22.9598C212.73 19.5698 211.42 18.1498 208.16 18.1498C205.22 18.1498 203.59 19.3698 203.26 21.9898H199.87C200.32 17.1298 204.19 15.3398 208.31 15.3398C212.43 15.3398 216.1 17.0098 216.1 22.9698V37.0398H212.71V34.3498C211.12 36.3498 209.2 37.4098 206.06 37.4098C202.1 37.4098 198.96 35.4898 198.96 31.1298L198.98 31.1198ZM212.73 29.5698V26.9198H209.79C205.51 26.9198 202.37 27.9798 202.37 31.1198C202.37 33.3198 203.43 34.7098 206.41 34.7098C210 34.7098 212.73 32.8698 212.73 29.5698Z" fill="#2F2C31"/>
<path d="M222.68 15.6998H226.07V19.5398C227.42 17.1298 229.25 15.4598 233.09 15.3398V18.5198C228.81 18.7298 226.07 20.0698 226.07 25.3298V37.0398H222.68V15.6998Z" fill="#2F2C31"/>
<path d="M235.74 26.5901V26.2601C235.74 19.8101 239.86 15.3301 245.74 15.3301C250.68 15.3301 255.33 18.3101 255.33 25.9401V27.0401H239.26C239.42 31.8901 241.75 34.5901 246.11 34.5901C249.41 34.5901 251.33 33.3701 251.78 30.8801H255.17C254.44 35.1601 250.89 37.4101 246.07 37.4101C240.03 37.4101 235.75 33.1701 235.75 26.6001L235.74 26.5901ZM251.85 24.3101C251.52 19.9001 249.24 18.1501 245.73 18.1501C242.22 18.1501 239.94 20.5201 239.37 24.3101H251.85Z" fill="#2F2C31"/>
<path d="M258.83 26.5901V26.2601C258.83 19.8101 262.95 15.3301 268.82 15.3301C273.76 15.3301 278.41 18.3101 278.41 25.9401V27.0401H262.34C262.5 31.8901 264.83 34.5901 269.19 34.5901C272.49 34.5901 274.41 33.3701 274.86 30.8801H278.25C277.52 35.1601 273.97 37.4101 269.15 37.4101C263.11 37.4101 258.83 33.1701 258.83 26.6001V26.5901ZM274.94 24.3101C274.61 19.9001 272.33 18.1501 268.82 18.1501C265.31 18.1501 263.03 20.5201 262.46 24.3101H274.94Z" fill="#2F2C31"/>
<path d="M283.51 15.6998H286.9V19.5398C288.25 17.1298 290.08 15.4598 293.92 15.3398V18.5198C289.64 18.7298 286.9 20.0698 286.9 25.3298V37.0398H283.51V15.6998Z" fill="#2F2C31"/>
<path d="M296.8 30.4698H300.1C300.35 32.9998 301.69 34.5898 305.12 34.5898C308.34 34.5898 309.77 33.4898 309.77 31.2098C309.77 28.9298 308.1 28.2298 304.79 27.6198C299.24 26.5998 297.37 25.0498 297.37 21.3398C297.37 17.3798 301.24 15.3398 304.59 15.3398C308.43 15.3398 311.73 16.8898 312.3 21.4998H309.04C308.55 19.1698 307.25 18.1598 304.55 18.1598C302.1 18.1598 300.51 19.3798 300.51 21.2198C300.51 23.0598 301.57 23.9098 305.49 24.6098C309.9 25.4298 313 26.3998 313 30.9298C313 34.8098 310.35 37.4198 305.17 37.4198C299.99 37.4198 297.01 34.8498 296.81 30.4798L296.8 30.4698Z" fill="#2F2C31"/>
</g>
</g>
</g>
<defs>
<clipPath id="clip0_18647_8735">
<rect width="313" height="45.5" fill="white"/>
</clipPath>
<clipPath id="clip1_18647_8735">
<rect width="313" height="45.5" fill="white"/>
</clipPath>
<clipPath id="clip2_18647_8735">
<rect width="313" height="45.5" fill="white"/>
</clipPath>
</defs>
</svg>
